<?xml version="1.0" encoding="UTF-8"?>
<svg id="Layer_1" data-name="Layer 1" xmlns="http://www.w3.org/2000/svg" viewBox="0 0 5000 5000">
  <defs>
    <style>
      .cls-1 {
        fill-rule: evenodd;
        fill: currentColor;
      }
    </style>
  </defs>
  <g transform="translate(0, 5000) scale(1, -1)">
    <path class="cls-1" d="M2970,1658.33l2030,2901.67-630,440-665-950c-278.33,358.33-715,590-1205,590s-926.67-231.67-1205-590l-665,950L0,4558.33,2030,1658.33,1178.33,441.67,1808.33,0l691.67,988.33L3191.67,0l630,441.67s-851.67,1216.67-851.67,1216.67ZM2500,4050c368.33,0,686.67-213.33,838.33-521.67l-290-415-3.33-6.67s-3.33,5-6.67,6.67c-5,5-10,11.67-15,16.67-133.33,133.33-320,216.67-523.33,216.67s-390-83.33-523.33-216.67c-5-5-10-11.67-15-16.67-3.33-1.67-5-5-6.67-6.67l-3.33,6.67-290,415c151.67,308.33,470,521.67,838.33,521.67Z"/>
  </g>
</svg>
